<svg xmlns="http://www.w3.org/2000/svg" width="24" height="24">
	<path d="M12 0c6.627 0 12 5.373 12 12s-5.373 12-12 12S0 18.627 0 12 5.373 0 12 0Zm.096 5.333c-1.964.014-3.475.67-4.49 1.95-.902 1.14-1.368 2.725-1.383 4.712v.01c.015 1.987.48 3.572 1.383 4.712 1.015 1.28 2.526 1.937 4.49 1.95h.008c1.745-.012 2.976-.466 3.99-1.472 1.326-1.315 1.287-2.965.85-3.977-.314-.726-.912-1.316-1.73-1.705a4.653 4.653 0 0 0-.176-.08c-.104-1.896-1.148-2.981-2.9-2.993h-.024c-1.048 0-1.92.445-2.457 1.253l.964.657c.4-.604 1.03-.733 1.493-.733h.017c.577.004 1.012.17 1.294.495.205.237.342.563.41.976a7.426 7.426 0 0 0-1.656-.08c-1.667.096-2.738 1.06-2.666 2.401.036.68.378 1.265.96 1.648.494.323 1.129.48 1.789.445.871-.048 1.555-.378 2.032-.982.362-.458.591-1.052.692-1.8.415.248.723.576.893.97.289.669.306 1.768-.598 2.665-.792.785-1.743 1.125-3.181 1.135-1.596-.011-2.803-.52-3.587-1.51-.735-.927-1.115-2.266-1.13-3.98.015-1.714.395-3.053 1.13-3.98.784-.99 1.991-1.498 3.587-1.51 1.607.012 2.834.522 3.649 1.517.4.488.7 1.101.9 1.817l1.128-.3c-.24-.88-.618-1.638-1.133-2.268-1.045-1.275-2.572-1.93-4.54-1.943h-.008Zm.553 6.839c.437 0 .844.041 1.215.122-.138 1.715-.95 1.994-1.665 2.033-.73.041-1.488-.285-1.526-.981-.028-.517.37-1.094 1.571-1.162.138-.008.273-.012.405-.012Z"/>
</svg>