<svg xmlns="http://www.w3.org/2000/svg" width="24" height="24">
	<path d="M15.116 10.952a5.149 5.149 0 0 0-.198-.09c-.117-2.132-1.291-3.354-3.263-3.366h-.027c-1.18 0-2.16.5-2.764 1.409l1.085.738c.45-.68 1.159-.824 1.68-.824h.018c.65.004 1.139.192 1.456.557.23.266.385.634.462 1.098a8.362 8.362 0 0 0-1.864-.09c-1.875.108-3.08 1.193-2.999 2.701.041.765.425 1.423 1.081 1.853.555.364 1.269.541 2.011.501.98-.053 1.75-.424 2.287-1.103.407-.516.665-1.184.779-2.026.467.28.813.648 1.004 1.09.325.754.345 1.99-.672 3-.891.883-1.962 1.265-3.58 1.277-1.795-.014-3.153-.585-4.036-1.7-.826-1.042-1.253-2.549-1.27-4.477.017-1.928.444-3.435 1.27-4.478.883-1.114 2.24-1.685 4.036-1.699 1.808.014 3.19.588 4.106 1.707.45.55.788 1.24 1.011 2.044L18 8.738c-.27-.99-.697-1.845-1.276-2.553C15.549 4.751 13.83 4.015 11.616 4h-.009c-2.21.015-3.908.753-5.05 2.194-1.015 1.282-1.54 3.065-1.557 5.3v.011c.018 2.236.542 4.02 1.557 5.301 1.142 1.44 2.84 2.179 5.05 2.194h.01c1.964-.014 3.348-.524 4.489-1.655 1.492-1.48 1.447-3.336.956-4.475-.353-.816-1.026-1.48-1.946-1.918Zm-3.392 3.166c-.822.046-1.675-.32-1.717-1.105-.031-.581.417-1.23 1.768-1.307a7.93 7.93 0 0 1 .455-.013c.491 0 .95.047 1.367.138-.155 1.93-1.068 2.243-1.873 2.287Z"/>
</svg>