<svg xmlns="http://www.w3.org/2000/svg" xmlns:xlink="http://www.w3.org/1999/xlink" width="24" height="24" viewBox="0 0 24 24">
    <path fill="#000" d="M14.8192819,4.8136962 C15.6201606,4.85024828 16.0550649,4.98403344 16.3445446,5.09652645 C16.7013269,5.22820913 17.0240616,5.43817887 17.2890218,5.71099912 C17.5618399,5.97596151 17.771808,6.29869876 17.9034896,6.65548389 C18.0159817,6.94493329 18.1497985,7.37987364 18.1863176,8.18075864 C18.2258366,9.0469548 18.2342164,9.30673213 18.2342164,11.5001175 C18.2342164,13.6935029 18.2258366,13.953215 18.1863176,14.8194764 C18.1497658,15.6203614 18.0159491,16.0552692 17.9034896,16.3447512 C17.6271464,17.0611333 17.0609211,17.6273632 16.3445446,17.9037086 C16.0550975,18.0162016 15.6201606,18.1500194 14.8192819,18.1865389 C13.9532557,18.2260581 13.6934804,18.234438 11.4999494,18.234438 C9.30641837,18.234438 9.04674092,18.2260581 8.18061686,18.1865389 C7.37973822,18.1499868 6.94483392,18.016169 6.65535421,17.9037086 C6.29857142,17.7720269 5.97583652,17.562057 5.71087694,17.2892359 C5.43805972,17.0242728 5.22809178,16.7015358 5.09640915,16.3447512 C4.98391703,16.0553018 4.85010033,15.6203614 4.81358115,14.8194764 C4.77406218,13.9533129 4.76568233,13.6935029 4.76568233,11.5001175 C4.76568233,9.30673213 4.77406218,9.04702001 4.81358115,8.18075864 C4.85013293,7.37987364 4.98391703,6.94496589 5.09640915,6.65548389 C5.22810548,6.29868098 5.43809643,5.97593168 5.71094216,5.71096651 C5.97590315,5.43814712 6.29863763,5.22817752 6.65541943,5.09649384 C6.94486653,4.98400083 7.37980343,4.85018306 8.18068207,4.81366359 C9.04687135,4.77414431 9.30664662,4.7657644 11.5000146,4.7657644 C13.6932522,4.765797 13.9530274,4.77417692 14.8192819,4.8136962 Z M7.99552243,3.05115106 C7.09076998,3.0924498 6.4729133,3.23611814 5.93225496,3.44625586 C5.36509676,3.65968774 4.85132027,3.9942669 4.42675228,4.42666238 C3.99426278,4.85120712 3.65959286,5.3649897 3.44608362,5.93217702 C3.23611627,6.47287339 3.09244907,7.09073497 3.05131935,7.99549461 C3.00978476,8.90197503 3,9.1915386 3,11.5000169 C3,13.8084951 3.00978476,14.0980587 3.05131935,15.0045391 C3.09261777,15.9092988 3.23628497,16.5271604 3.44642102,17.067823 C3.65985218,17.6349852 3.99442855,18.1487656 4.42681976,18.5733376 C4.85138637,19.0057348 5.36516326,19.3403142 5.93232244,19.5537441 C6.47301452,19.7638819 7.0908712,19.9075502 7.99558991,19.9488489 C8.9021981,19.9902152 9.19165815,20 11.5000844,20 C13.8085106,20 14.0981056,19.9902152 15.0045788,19.9488489 C15.9093312,19.9075502 16.5271879,19.7638819 17.0678463,19.5537441 C18.2095836,19.1121603 19.1121674,18.2095693 19.5537477,17.067823 C19.7638837,16.5271266 19.9075509,15.909265 19.9488493,15.0045391 C19.9902152,14.0979237 20,13.8084614 20,11.5000169 C20,9.19157234 19.9902152,8.90197503 19.9488493,7.99549461 C19.9075509,7.09073497 19.7638837,6.47287339 19.5537477,5.93221076 C19.3403194,5.36504707 19.0057427,4.8512661 18.5733489,4.42669612 C18.1487723,3.99421443 17.6349584,3.65956433 17.067745,3.44608716 C16.527053,3.23611814 15.9091963,3.0924498 15.0044438,3.05131976 C14.0979706,3.00978483 13.8084093,3 11.4999494,3 C9.19155693,3 8.90199565,3.00978483 7.99552243,3.05115106 Z"/>
    <path fill="#000" d="M7,11.5 C7,9.01471863 9.01471863,7 11.5,7 C13.9852814,7 16,9.01471863 16,11.5 C16,13.9852814 13.9852814,16 11.5,16 C9.01471863,16 7,13.9852814 7,11.5 Z M8.78953929,11.4999785 C8.7895274,12.9969396 10.0030414,14.2104777 11.5000025,14.2104955 C12.9969731,14.2104955 14.2105125,12.9969705 14.2105303,11.5 C14.2105303,10.0030389 12.9970067,8.78951045 11.5000455,8.7895045 C10.0030844,8.78949856 8.78955117,10.0030174 8.78953929,11.4999785 Z"/>
    <circle fill="#000" cx="16" cy="7" r="1"/>
</svg>