<svg xmlns="http://www.w3.org/2000/svg" width="24" height="24">
	<path d="M12 0c6.627 0 12 5.373 12 12s-5.373 12-12 12S0 18.627 0 12 5.373 0 12 0Zm7.556 7.664c0-2.16-2.026-1.482-3.276-.604-1.733 1.217-3.595 3.683-4.28 5.006-.684-1.323-2.547-3.79-4.28-5.006-1.25-.878-3.276-1.557-3.276.604 0 .433.265 3.626.42 4.145.54 1.802 2.505 2.261 4.252 1.983-3.055.486-3.832 2.099-2.153 3.71 3.188 3.06 4.582-.767 4.94-1.748.065-.18.097-.264.097-.194 0-.071.032.014.098.194.357.981 1.751 4.808 4.94 1.749 1.68-1.612.9-3.224-2.155-3.711 1.748.278 3.712-.182 4.253-1.983.155-.519.42-3.712.42-4.145Z"/>
</svg>