<svg xmlns="http://www.w3.org/2000/svg" viewBox="0 0 24 24"><path fill="#000" fill-rule="evenodd" d="M15.514 4.92c.848.038 1.309.18 1.615.3.378.139.72.36 1 .65.29.28.512.622.651 1 .12.306.26.767.3 1.615.041.917.05 1.192.05 3.515 0 2.322-.009 2.597-.05 3.514-.04.849-.18 1.309-.3 1.616a2.88 2.88 0 01-1.65 1.65c-.307.12-.768.261-1.616.3-.917.042-1.192.05-3.514.05-2.323 0-2.598-.008-3.515-.05-.848-.039-1.309-.18-1.615-.3a2.695 2.695 0 01-1-.65 2.695 2.695 0 01-.651-1c-.12-.307-.26-.767-.3-1.616-.041-.917-.05-1.192-.05-3.514 0-2.323.009-2.598.05-3.515.04-.848.18-1.309.3-1.615.14-.378.362-.72.65-1 .281-.29.623-.512 1-.651.307-.12.768-.26 1.616-.3.917-.041 1.192-.05 3.515-.05 2.322 0 2.597.009 3.514.05zM12.527 3h.238l.62.001c1.235.005 1.587.019 2.325.052.958.044 1.613.196 2.185.418.6.227 1.145.58 1.594 1.039.458.45.812.993 1.038 1.594.223.572.375 1.227.419 2.185l.022.5.006.187c.017.5.024 1.035.026 2.259v1.53a68.69 68.69 0 01-.026 2.258l-.006.186-.022.501c-.044.958-.196 1.613-.419 2.185a4.602 4.602 0 01-2.632 2.632c-.572.223-1.227.375-2.185.419l-.5.022-.187.006c-.499.017-1.035.024-2.258.026h-1.53c-1.76-.003-2.097-.015-2.946-.054-.958-.044-1.612-.196-2.185-.419A4.412 4.412 0 014.51 19.49a4.412 4.412 0 01-1.038-1.594c-.223-.572-.375-1.227-.419-2.185a43.526 43.526 0 01-.052-2.325L3 12.765V11.235l.001-.62c.005-1.236.019-1.588.052-2.326.044-.958.196-1.613.418-2.185.227-.6.58-1.145 1.039-1.594.45-.458.993-.812 1.594-1.038.572-.223 1.227-.375 2.185-.419.738-.033 1.09-.047 2.326-.052l.62-.001h.237zM12 7.234a4.765 4.765 0 100 9.53 4.765 4.765 0 000-9.53zm0 1.894a2.87 2.87 0 110 5.74 2.87 2.87 0 010-5.74zm4.764-2.953a1.059 1.059 0 100 2.117 1.059 1.059 0 000-2.117z"/></svg>