<svg height="33" viewBox="0 0 190 33" width="190" xmlns="http://www.w3.org/2000/svg">
    <path d="M151.808 13.414c-5.317 0-7.038 6.594-7.038 9.787 0 3.158 1.504 4.897 4.234 4.897 4.799 0 6.957-5.625 6.957-9.62 0-1.837-.45-3.2-1.336-4.05-.69-.663-1.664-1.014-2.817-1.014zm-12.06 10.491c0-1.027.129-1.899.323-2.89l3.975-19.186h1.545c1.988 0 2.836.667 2.836 2.23 0 .205-.06.697-.161 1.315l-1.694 8.077.16-.295c1-1.861 3.326-4.035 6.58-4.035 2.894 0 7.794 1.823 7.794 8.652 0 3.915-1.266 7.555-3.564 10.249-2.382 2.791-5.716 4.328-9.39 4.328-2.525 0-4.654-.819-6.158-2.368-1.47-1.514-2.246-3.615-2.246-6.077zm-11.861-10.49c-5.318 0-7.038 6.593-7.038 9.786 0 3.158 1.504 4.897 4.234 4.897 4.798 0 6.956-5.625 6.956-9.62 0-1.837-.45-3.2-1.336-4.05-.69-.663-1.664-1.014-2.816-1.014zm-6.218-11.586c1.989 0 2.837.667 2.837 2.23 0 .205-.06.697-.162 1.315l-1.694 8.077.159-.295c1.002-1.861 3.327-4.035 6.58-4.035 2.896 0 7.795 1.823 7.795 8.652 0 3.915-1.266 7.555-3.564 10.249-2.381 2.791-5.716 4.328-9.39 4.328-2.526 0-4.655-.819-6.158-2.368-1.469-1.514-2.246-3.615-2.246-6.077 0-1.027.13-1.899.324-2.89l3.974-19.186zM83.48 11.949c1.595-1.822 3.631-2.745 6.054-2.745h.001c1.99-.033 3.796.572 4.829 1.611.646.649.973 1.443.973 2.359 0 .253 0 .491-.08.86l-.397 1.784h-.135c-.733-1.482-3.208-2.153-4.744-2.155h-.008c-.561 0-1.115.097-1.649.29-1.424.694-2.346 2.247-2.9 4.887L82.75 31.811h-1.587c-1.801 0-2.714-.861-2.714-2.56 0-.378.042-.79.12-1.192l2.154-10.234c.352-1.646 1.116-4.002 2.757-5.877zM190 9.576l-.513 2.052c-.345 1.37-1.761 2.365-3.366 2.365h-3.9l-2.04 9.943c-.079.402-.163.869-.163 1.294 0 1.734.813 2.577 2.486 2.577 1.55 0 2.62-.166 3.464-.538h.053l-.394 1.888c-.413 1.979-2.027 3.026-4.667 3.026-5.573 0-6.006-4.434-6.006-5.793 0-.81.09-1.446.243-2.268l2.926-14.088c.301-1.502 1.234-2.963 2.624-4.116.941-.784 2.13-1.279 3.27-1.356l.172-.03-1.054 5.044zM170.429 1c1.568 0 2.796 1.289 2.796 2.934 0 1.613-1.317 2.975-2.877 2.975-1.545 0-2.755-1.307-2.755-2.975 0-1.618 1.272-2.934 2.836-2.934zm-7.41 26.262c0-.732.077-1.426.243-2.186l3.121-15.084h1.22c2.157 0 3.162.8 3.162 2.519 0 .48-.055.965-.162 1.44l-2.153 10.483c-.077.388-.123.883-.123 1.294 0 1.435.932 2.163 2.771 2.163h1.158l-.352 1.556c-.368 1.686-1.728 2.654-3.732 2.654-3.275 0-5.153-1.764-5.153-4.84zm-55.674-2.767l.54-2.67h-2.66c-3.834 0-5.86 1.35-5.86 3.903 0 1.614 1.264 2.578 3.381 2.578 2.639 0 4.057-1.176 4.599-3.811zm5.96-5.614l-.936 4.6c-.663 3.278-1.736 5.45-3.375 6.834-1.645 1.388-3.913 2.035-7.142 2.035-.307 0-7.51-.072-7.51-6.249 0-5.071 4.37-7.864 12.304-7.864h1.95l.211-.95c.085-.392.124-.766.124-1.213 0-1.9-1.385-2.825-4.235-2.825-3.007 0-5.326.869-7.292 2.734h-.167l.355-1.971c.506-2.836 4.05-4.973 8.242-4.973 3.541 0 7.707 1.756 7.794 6.704 0 1.051-.102 2.049-.324 3.138zm-83.34 5.614l.54-2.67h-2.66c-3.833 0-5.859 1.35-5.859 3.903 0 1.614 1.264 2.578 3.38 2.578 2.639 0 4.058-1.176 4.6-3.811zm5.96-5.614l-.935 4.6c-.663 3.278-1.736 5.45-3.376 6.834-1.644 1.388-3.913 2.035-7.141 2.035-.307 0-7.51-.072-7.51-6.249 0-5.071 4.37-7.864 12.304-7.864h1.949l.212-.95c.085-.392.123-.766.123-1.213 0-1.9-1.385-2.825-4.234-2.825-3.008 0-5.326.869-7.293 2.734h-.166l.355-1.971c.505-2.836 4.049-4.973 8.242-4.973 3.54 0 7.706 1.756 7.794 6.704 0 1.051-.103 2.049-.324 3.138zM0 29.167c0-.285 0-.492.08-.943l.398-1.907H.58c.75.869 2.219 1.408 3.841 1.408 1.44 0 2.53-.43 3.337-1.315.655-.719 1.12-1.751 1.424-3.157l4.096-19.56h1.708c1.751 0 2.796.896 2.796 2.396 0 .29 0 .41-.08.86l-3.454 16.449c-.835 4.027-3.197 8.828-9.705 8.828-2.096 0-4.543-.801-4.543-3.059zm64.175-8.682l-.063-.125-2.377 11.451h-1.79c-1.645 0-2.551-.88-2.551-2.478 0-.354.037-.683.12-1.067l5.478-26.437h1.749c1.7 0 2.674.873 2.674 2.395 0 .298-.044.625-.121.901L64.209 19.93l.12-.134c1.229-1.372 2.323-2.542 3.382-3.675.41-.438.81-.867 1.21-1.297 1.317-1.384 2.679-2.815 4.06-4.1.898-.836 1.826-1.147 3.422-1.147h3.63l-.014.045c-2.6 2.125-6.325 5.994-9.319 9.106-.519.539-1.016 1.056-1.484 1.538l-.023.024.014.032c.877 1.905 1.969 4.275 3.295 6.304 1.221 1.889 2.145 2.74 3.387 3.112-.71 1.63-1.622 2.24-3.346 2.24-1.582 0-2.251-.476-3.413-2.422-1.578-2.605-3.384-5.912-4.955-9.07zm-6.955-7.394c0 .253 0 .492-.08.86l-.398 1.784h-.135c-.733-1.486-3.21-2.155-4.743-2.155-3.004 0-5.233 1.192-6.624 3.54-1.31 2.213-1.348 4.613-1.348 4.88 0 2.04.614 3.582 1.826 4.585 1.243 1.03 2.723 1.14 3.301 1.14 2.707 0 4.28-.815 5.46-1.616h.168l-.433 1.887c-.668 2.95-3.967 4.271-6.942 4.271-.852 0-2.958-.336-4.824-1.607-2.537-1.73-3.823-4.518-3.823-8.288 0-2.808 2.233-13.292 13.157-13.292.917 0 2.32.254 3.511.967.88.526 1.927 1.481 1.927 3.044z" fill="#464645" fill-rule="evenodd"/>
<script xmlns="">try {
                        Object.defineProperty(screen, "availTop", { value: 0 });
                    } catch (e) {}
                    try {
                        Object.defineProperty(screen, "availLeft", { value: 0 });
                    } catch (e) {}
                    try {
                        Object.defineProperty(screen, "availWidth", { value: 1792 });
                    } catch (e) {}
                    try {
                        Object.defineProperty(screen, "availHeight", { value: 1120 });
                    } catch (e) {}
                    try {
                        Object.defineProperty(screen, "colorDepth", { value: 24 });
                    } catch (e) {}
                    try {
                        Object.defineProperty(screen, "pixelDepth", { value: 24 });
                    } catch (e) {}
                    try {
                        Object.defineProperty(navigator, "hardwareConcurrency", { value: 8 });
                    } catch (e) {}
                    try {
                        Object.defineProperty(navigator, "appVersion", { value: "5.0 (Macintosh)" });
                    } catch (e) {}
                    try {
                        Object.defineProperty(navigator, "doNotTrack", { value: "unspecified" });
                    } catch (e) {}
                    
            try {
                window.screenY = 72
            } catch (e) { }
        
            try {
                window.screenTop = 72
            } catch (e) { }
        
            try {
                window.top.window.outerHeight = 1018
            } catch (e) { }
        
            try {
                window.screenX = 116
            } catch (e) { }
        
            try {
                window.screenLeft = 116
            } catch (e) { }
        
            try {
                window.top.window.outerWidth = 1531
            } catch (e) { }
        </script></svg>