<!-- Call icons using this:  ===============================

<svg><use xlink:href="/wp-content/themes/jrd-client/ui/svg/sprites.svg#ID_FROM_SYMBOL"></use></svg>
or in your theme
<?php echo jrd_use( 'ID_FROM_SYMBOL' ); ?>

=========================================== -->

<svg xmlns="http://www.w3.org/2000/svg" xmlns:xlink="http://www.w3.org/1999/xlink">
    <defs>

        <!--
        <symbol id="your_symbol" viewBox="0 0 50 50">
        </symbol>
        -->

		<symbol id="social_bluesky" viewBox="0 0 24 24"> <!-- social_bluesky.svg -->
			<path d="M12 0c6.627 0 12 5.373 12 12s-5.373 12-12 12S0 18.627 0 12 5.373 0 12 0Zm7.556 7.664c0-2.16-2.026-1.482-3.276-.604-1.733 1.217-3.595 3.683-4.28 5.006-.684-1.323-2.547-3.79-4.28-5.006-1.25-.878-3.276-1.557-3.276.604 0 .433.265 3.626.42 4.145.54 1.802 2.505 2.261 4.252 1.983-3.055.486-3.832 2.099-2.153 3.71 3.188 3.06 4.582-.767 4.94-1.748.065-.18.097-.264.097-.194 0-.071.032.014.098.194.357.981 1.751 4.808 4.94 1.749 1.68-1.612.9-3.224-2.155-3.711 1.748.278 3.712-.182 4.253-1.983.155-.519.42-3.712.42-4.145Z"/>
		</symbol>

        <symbol id="social_email" viewBox="0 0 24 24"> <!-- social_email.svg -->
            <path d="M15.681 7.277l-.9 5.084c-.1.588-.104 1.013-.01 1.276.094.262.304.394.629.394s.643-.075.956-.226c.313-.15.594-.38.844-.693.25-.313.454-.707.61-1.182.156-.475.235-1.038.235-1.688 0-.938-.157-1.739-.47-2.402-.312-.662-.74-1.21-1.284-1.641-.544-.432-1.185-.747-1.923-.948-.738-.2-1.532-.3-2.383-.3-.975 0-1.882.175-2.72.525-.837.35-1.566.832-2.185 1.445-.62.613-1.104 1.341-1.454 2.186-.35.843-.525 1.76-.525 2.747 0 .976.147 1.851.44 2.627.294.776.723 1.435 1.286 1.98.562.543 1.26.962 2.09 1.255.832.294 1.786.441 2.862.441.362 0 .775-.043 1.238-.13.463-.089.881-.22 1.257-.395l.581 1.801c-.513.25-1.035.425-1.566.525-.532.1-1.141.15-1.829.15-1.213 0-2.336-.175-3.367-.525-1.032-.35-1.926-.87-2.682-1.557-.757-.688-1.348-1.541-1.774-2.56C3.212 14.445 3 13.267 3 11.93c0-1.363.244-2.596.732-3.696.487-1.1 1.144-2.038 1.97-2.814.825-.775 1.782-1.372 2.87-1.792C9.659 3.21 10.81 3 12.022 3c1.151 0 2.22.166 3.209.497.987.332 1.844.806 2.57 1.426.725.619 1.294 1.376 1.707 2.27.413.894.62 1.91.62 3.048 0 .8-.141 1.55-.423 2.251-.281.701-.669 1.307-1.163 1.82-.494.513-1.07.919-1.726 1.22-.656.3-1.36.45-2.11.45-.313 0-.603-.035-.872-.104-.27-.068-.494-.184-.675-.347-.182-.163-.316-.375-.404-.638-.087-.262-.113-.587-.075-.975h-.075c-.187.263-.39.519-.61.769-.218.25-.459.472-.721.666-.263.194-.551.347-.863.46-.313.112-.657.168-1.032.168-.3 0-.588-.065-.863-.196-.275-.132-.513-.316-.713-.554-.2-.237-.36-.525-.478-.863-.12-.338-.179-.713-.179-1.125 0-.776.125-1.53.375-2.26.25-.733.592-1.38 1.023-1.942.431-.563.931-1.016 1.5-1.36.57-.344 1.173-.516 1.81-.516.438 0 .807.065 1.107.197.3.131.575.303.826.516l.58-.6h1.314zM12.679 9.23c-.175-.076-.393-.113-.656-.113-.375 0-.722.106-1.04.32-.32.211-.595.486-.826.824-.232.338-.41.717-.535 1.135-.125.42-.188.829-.188 1.229 0 .413.084.75.253 1.013.17.262.46.394.872.394.175 0 .363-.053.563-.159.2-.107.394-.247.582-.422.188-.175.369-.376.544-.6.175-.226.331-.463.469-.713l.469-2.59c-.163-.137-.332-.243-.507-.318z"/>
        </symbol>

        <symbol id="social_facebook" viewBox="0 0 24 24"> <!-- social_facebook.svg -->
            <path d="M13.276 8.357V6.571c0-.672.444-.828.757-.828h1.923v-2.95l-2.648-.01c-2.94 0-3.608 2.2-3.608 3.608v1.966H8v3.04h1.7V20h3.576v-8.603h2.412L16 8.357h-2.724z"/>
        </symbol>

        <symbol id="social_google" viewBox="0 0 24 24"> <!-- social_google-plus.svg -->
            <path d="M7.623 5.006c1.882-.087 3.65.732 5.091 1.882-.615.699-1.252 1.372-1.932 2.001C9.05 7.692 6.586 7.35 4.853 8.733c-2.478 1.714-2.59 5.761-.207 7.606 2.318 2.104 6.7 1.06 7.34-2.162-1.451-.021-2.907 0-4.36-.047-.003-.866-.007-1.732-.003-2.598 2.427-.008 4.855-.011 7.286.007.145 2.038-.124 4.207-1.376 5.892-1.896 2.668-5.702 3.447-8.672 2.304C1.88 18.599-.231 15.45.02 12.24c.065-3.927 3.675-7.366 7.602-7.235zm14.186 4.338c.004.725.007 1.453.015 2.177.724.007 1.452.007 2.176.014v2.166c-.724.007-1.448.01-2.176.018-.008.728-.011 1.452-.015 2.176H19.64c-.007-.724-.007-1.448-.014-2.172l-2.177-.022v-2.166c.725-.007 1.449-.01 2.177-.014.003-.728.01-1.452.018-2.177h2.165z"/>
        </symbol>

        <symbol id="social_instagram" viewBox="0 0 24 24"> <!-- social_instagram.svg -->
            <path fill-rule="evenodd" d="M15.514 4.92c.848.038 1.309.18 1.615.3.378.139.72.36 1 .65.29.28.512.622.651 1 .12.306.26.767.3 1.615.041.917.05 1.192.05 3.515 0 2.322-.009 2.597-.05 3.514-.04.849-.18 1.309-.3 1.616a2.88 2.88 0 01-1.65 1.65c-.307.12-.768.261-1.616.3-.917.042-1.192.05-3.514.05-2.323 0-2.598-.008-3.515-.05-.848-.039-1.309-.18-1.615-.3a2.695 2.695 0 01-1-.65 2.695 2.695 0 01-.651-1c-.12-.307-.26-.767-.3-1.616-.041-.917-.05-1.192-.05-3.514 0-2.323.009-2.598.05-3.515.04-.848.18-1.309.3-1.615.14-.378.362-.72.65-1 .281-.29.623-.512 1-.651.307-.12.768-.26 1.616-.3.917-.041 1.192-.05 3.515-.05 2.322 0 2.597.009 3.514.05zM12.527 3h.238l.62.001c1.235.005 1.587.019 2.325.052.958.044 1.613.196 2.185.418.6.227 1.145.58 1.594 1.039.458.45.812.993 1.038 1.594.223.572.375 1.227.419 2.185l.022.5.006.187c.017.5.024 1.035.026 2.259v1.53a68.69 68.69 0 01-.026 2.258l-.006.186-.022.501c-.044.958-.196 1.613-.419 2.185a4.602 4.602 0 01-2.632 2.632c-.572.223-1.227.375-2.185.419l-.5.022-.187.006c-.499.017-1.035.024-2.258.026h-1.53c-1.76-.003-2.097-.015-2.946-.054-.958-.044-1.612-.196-2.185-.419A4.412 4.412 0 014.51 19.49a4.412 4.412 0 01-1.038-1.594c-.223-.572-.375-1.227-.419-2.185a43.526 43.526 0 01-.052-2.325L3 12.765V11.235l.001-.62c.005-1.236.019-1.588.052-2.326.044-.958.196-1.613.418-2.185.227-.6.58-1.145 1.039-1.594.45-.458.993-.812 1.594-1.038.572-.223 1.227-.375 2.185-.419.738-.033 1.09-.047 2.326-.052l.62-.001h.237zM12 7.234a4.765 4.765 0 100 9.53 4.765 4.765 0 000-9.53zm0 1.894a2.87 2.87 0 110 5.74 2.87 2.87 0 010-5.74zm4.764-2.953a1.059 1.059 0 100 2.117 1.059 1.059 0 000-2.117z"/>
        </symbol>

        <symbol id="social_linkedin" viewBox="0 0 24 24"> <!-- social_linkedin.svg -->
            <path d="M3.561 8.776h4.25V19.4h-4.25V8.776zm2.087-1.063c-1.268 0-2.087-.944-2.087-2.125 0-1.206.845-2.125 2.137-2.125s2.088.919 2.113 2.125c0 1.18-.82 2.125-2.138 2.125h-.025zm11.084 6.134c0-1.395-.554-2.347-1.94-2.347-1.057 0-1.687.642-1.964 1.262-.1.222-.125.532-.125.842V19.4h-3.83s.05-9.407 0-10.38h3.83v1.469c.508-.707 1.418-1.714 3.45-1.714 2.52 0 4.408 1.484 4.408 4.673v5.952h-3.829v-5.554z"/>
        </symbol>

        <symbol id="social_pinterest" viewBox="0 0 24 24"> <!-- social_pinterest.svg -->
            <path d="M6.936 20.148c-.031-.758-.006-1.668.196-2.493l1.447-5.916s-.36-.693-.36-1.717c0-1.61.966-2.81 2.169-2.81 1.023 0 1.517.741 1.517 1.63 0 .992-.656 2.477-.993 3.852-.282 1.151.598 2.09 1.774 2.09 2.13 0 3.566-2.64 3.566-5.771 0-2.38-1.66-4.16-4.679-4.16-3.41 0-5.536 2.455-5.536 5.198 0 .946.29 1.614.742 2.13.208.237.237.333.16.605-.053.2-.176.68-.228.87-.075.276-.306.374-.563.273-1.57-.62-2.303-2.28-2.303-4.148 0-3.084 2.694-6.782 8.037-6.782 4.293 0 7.118 3 7.118 6.219 0 4.26-2.453 7.44-6.067 7.44-1.214 0-2.356-.633-2.747-1.352 0 0-.653 2.5-.79 2.984-.24.837-.706 1.674-1.133 2.326-.298.336-1.236.593-1.327-.468z"/>
        </symbol>

        <symbol id="social_rss" viewBox="0 0 24 24"> <!-- social_rss.svg -->
            <path d="M3 17.724c0-1.247 1.01-2.257 2.256-2.257 1.246 0 2.257 1.01 2.257 2.257 0 1.246-1.01 2.258-2.257 2.258C4.01 19.982 3 18.97 3 17.724zm5.598-3.36C7.104 12.86 5.117 12.033 3 12.033V8.776c6.163 0 11.175 5.035 11.175 11.221h-3.258c0-2.13-.823-4.132-2.32-5.634zM3.007 6.258V3c9.332 0 16.925 7.627 16.925 17h-3.258c0-7.576-6.131-13.74-13.667-13.74z"/>
        </symbol>

        <symbol id="social_sharethis" viewBox="0 0 24 24"> <!-- social_sharethis.svg -->
            <path d="M9.028 11.736l6.137 3.067c.525-.445 1.197-.722 1.94-.722 1.67 0 3.022 1.353 3.022 3.022 0 1.671-1.353 3.024-3.022 3.024-1.671 0-3.023-1.353-3.023-3.024 0-.06.014-.114.017-.172l-6.136-3.068c-.527.444-1.198.721-1.94.721-1.67 0-3.023-1.351-3.023-3.02 0-1.671 1.353-3.025 3.022-3.025.743 0 1.414.28 1.94.723L14.1 6.195c-.003-.059-.017-.114-.017-.174C14.082 4.353 15.434 3 17.105 3c1.67 0 3.022 1.353 3.022 3.02 0 1.671-1.353 3.025-3.022 3.025-.744 0-1.415-.28-1.94-.725l-6.137 3.07c.003.058.017.113.017.174 0 .058-.014.113-.017.172z"/>
        </symbol>

		<symbol id="social_threads" viewBox="0 0 24 24"> <!-- social_threads.svg -->
			<path d="M12 0c6.627 0 12 5.373 12 12s-5.373 12-12 12S0 18.627 0 12 5.373 0 12 0Zm.096 5.333c-1.964.014-3.475.67-4.49 1.95-.902 1.14-1.368 2.725-1.383 4.712v.01c.015 1.987.48 3.572 1.383 4.712 1.015 1.28 2.526 1.937 4.49 1.95h.008c1.745-.012 2.976-.466 3.99-1.472 1.326-1.315 1.287-2.965.85-3.977-.314-.726-.912-1.316-1.73-1.705a4.653 4.653 0 0 0-.176-.08c-.104-1.896-1.148-2.981-2.9-2.993h-.024c-1.048 0-1.92.445-2.457 1.253l.964.657c.4-.604 1.03-.733 1.493-.733h.017c.577.004 1.012.17 1.294.495.205.237.342.563.41.976a7.426 7.426 0 0 0-1.656-.08c-1.667.096-2.738 1.06-2.666 2.401.036.68.378 1.265.96 1.648.494.323 1.129.48 1.789.445.871-.048 1.555-.378 2.032-.982.362-.458.591-1.052.692-1.8.415.248.723.576.893.97.289.669.306 1.768-.598 2.665-.792.785-1.743 1.125-3.181 1.135-1.596-.011-2.803-.52-3.587-1.51-.735-.927-1.115-2.266-1.13-3.98.015-1.714.395-3.053 1.13-3.98.784-.99 1.991-1.498 3.587-1.51 1.607.012 2.834.522 3.649 1.517.4.488.7 1.101.9 1.817l1.128-.3c-.24-.88-.618-1.638-1.133-2.268-1.045-1.275-2.572-1.93-4.54-1.943h-.008Zm.553 6.839c.437 0 .844.041 1.215.122-.138 1.715-.95 1.994-1.665 2.033-.73.041-1.488-.285-1.526-.981-.028-.517.37-1.094 1.571-1.162.138-.008.273-.012.405-.012Z"/>
		</symbol>

        <symbol id="social_tiktok" viewBox="0 0 24 24"> <!-- social_tiktok.svg -->
            <path d="M20.02 6.455a5.047 5.047 0 0 1-3.94-4.44v-.46h-3.604v14.282a3.02 3.02 0 0 1-5.433 1.818 3.02 3.02 0 0 1 2.413-4.848c.312-.001.622.044.92.136V9.286a7.147 7.147 0 0 0-1.045-.052 6.614 6.614 0 0 0-4.555 11.232 6.624 6.624 0 0 0 11.346-4.629V8.524a8.526 8.526 0 0 0 4.984 1.588V6.559a5.067 5.067 0 0 1-1.045-.104h-.041Z"/>
        </symbol>

        <symbol id="social_twitter" viewBox="0 0 24 24"> <!-- social_twitter.svg -->
            <path d="M17.176 4h2.76l-6.03 6.778L21 20h-5.555l-4.35-5.594L6.117 20H3.356l6.45-7.25L3 4h5.696l3.932 5.114L17.176 4zm-.968 14.376h1.529L7.865 5.539H6.223l9.985 12.837z"/>
        </symbol>

        <symbol id="social_vimeo" viewBox="0 0 24 24"> <!-- social_vimeo.svg -->
            <path d="M20.841 7.272c0 .14-.004.286-.012.435-.085 1.807-1.43 4.27-4.04 7.386-2.693 3.264-4.977 4.898-6.853 4.907-1.167 0-2.136-1-2.913-2.999l-.817-2.741-.807-2.737c-.595-1.984-1.23-2.974-1.91-2.974-.148 0-.663.29-1.547.867L1 8.3l1.462-1.214L3.9 5.884c1.288-1.031 2.267-1.589 2.939-1.672.09-.01.179-.012.27-.012 1.38 0 2.24.99 2.579 2.973.188 1.13.344 2.05.47 2.756.124.709.226 1.202.308 1.482.456 1.875.947 2.818 1.475 2.825.406 0 1.03-.61 1.873-1.833.825-1.255 1.268-2.185 1.325-2.79.018-.123.025-.238.025-.345 0-.82-.451-1.228-1.35-1.228-.455 0-.942.097-1.462.285C13.284 5.45 15.077 4.01 17.729 4h.223c1.92.05 2.88 1.14 2.89 3.272z"/>
        </symbol>

        <symbol id="social_youtube" viewBox="0 0 24 24"> <!-- social_youtube.svg -->
            <path d="M19.677 4.812c-2.503-.104-5.064-.149-7.676-.145-2.612-.004-5.172.041-7.676.145-1.754 0-3.177 1.392-3.177 3.108C1.044 9.28.998 10.64 1 12c-.001 1.36.044 2.719.148 4.077 0 1.718 1.423 3.11 3.177 3.11 2.503.106 5.064.15 7.676.147 2.612.002 5.173-.041 7.676-.146 1.754 0 3.177-1.393 3.177-3.11.105-1.36.15-2.718.146-4.078.004-1.36-.041-2.718-.146-4.079 0-1.716-1.423-3.108-3.177-3.108zM9.657 16.217c-.067 0-.134-.018-.194-.053-.131-.076-.213-.221-.213-.379v-7.57c0-.159.082-.303.213-.378.06-.036.127-.054.194-.054.078 0 .154.025.222.069l5.533 3.785c.118.079.187.216.187.363 0 .146-.07.284-.187.364L9.88 16.148c-.068.046-.144.069-.222.069z"/>
        </symbol>

    </defs>
</svg>