<!-- Call icons using this:  ===============================

<svg class="WHATEVER"><use xlink:href="../ui/svg/sprites.svg#ID_FROM_SYMBOL"></use></svg>

=========================================== -->

<svg xmlns="http://www.w3.org/2000/svg" xmlns:xlink="http://www.w3.org/1999/xlink">
    <defs>

        <symbol id="social_email" viewBox="0 0 18 18"> <!-- social_email.svg -->
            <path d="M11.368 4.277h1.313l-.9 5.084c-.1.588-.104 1.013-.01 1.276.094.262.304.394.629.394s.643-.075.956-.226c.313-.15.594-.38.844-.693.25-.313.454-.707.61-1.182.156-.475.235-1.038.235-1.688 0-.938-.157-1.739-.47-2.402A4.522 4.522 0 0 0 13.292 3.2a5.27 5.27 0 0 0-1.923-.948 9.07 9.07 0 0 0-2.383-.3c-.975 0-1.882.175-2.72.525A6.82 6.82 0 0 0 4.08 3.921a6.586 6.586 0 0 0-1.454 2.186 7.094 7.094 0 0 0-.525 2.747c0 .976.147 1.851.44 2.627a5.348 5.348 0 0 0 1.286 1.98c.562.543 1.26.962 2.09 1.255.832.294 1.786.441 2.862.441.362 0 .775-.043 1.238-.13.463-.089.881-.22 1.257-.395l.581 1.801a6.155 6.155 0 0 1-1.566.525c-.532.1-1.141.15-1.829.15-1.213 0-2.336-.175-3.367-.525a7.542 7.542 0 0 1-2.682-1.557c-.757-.688-1.348-1.541-1.774-2.56C.212 11.445 0 10.267 0 8.93c0-1.363.244-2.596.732-3.696a8.587 8.587 0 0 1 1.97-2.814A8.744 8.744 0 0 1 5.572.628 9.528 9.528 0 0 1 9.022 0c1.151 0 2.22.166 3.209.497.987.332 1.844.806 2.57 1.426a6.558 6.558 0 0 1 1.707 2.27c.413.894.62 1.91.62 3.048 0 .8-.141 1.55-.423 2.251a5.6 5.6 0 0 1-1.163 1.82 5.635 5.635 0 0 1-1.726 1.22c-.656.3-1.36.45-2.11.45a3.51 3.51 0 0 1-.872-.104 1.58 1.58 0 0 1-.675-.347 1.454 1.454 0 0 1-.404-.638c-.087-.262-.113-.587-.075-.975h-.075c-.187.263-.39.519-.61.769-.218.25-.459.472-.721.666-.263.194-.551.347-.863.46a3.04 3.04 0 0 1-1.032.168c-.3 0-.588-.065-.863-.196a2.114 2.114 0 0 1-.713-.554c-.2-.237-.36-.525-.478-.863a3.362 3.362 0 0 1-.179-1.125c0-.776.125-1.53.375-2.26A6.753 6.753 0 0 1 5.544 6.04a5.422 5.422 0 0 1 1.5-1.36 3.446 3.446 0 0 1 1.81-.516c.438 0 .807.065 1.107.197.3.131.575.303.826.516l.58-.6zm-1.182 2.27a2.002 2.002 0 0 0-.507-.318 1.668 1.668 0 0 0-.656-.113c-.375 0-.722.106-1.04.32a3.034 3.034 0 0 0-.826.824c-.232.338-.41.717-.535 1.135a4.3 4.3 0 0 0-.188 1.229c0 .413.084.75.253 1.013.17.262.46.394.872.394.175 0 .363-.053.563-.159.2-.107.394-.247.582-.422a5.453 5.453 0 0 0 1.013-1.313l.469-2.59z"/>
        </symbol>

        <symbol id="social_facebook" viewBox="0 0 9 19"> <!-- social_facebook.svg -->
            <path d="M5.822 6.152V4.181c0-.74.49-.914.836-.914h2.121V.012L5.857 0C2.614 0 1.876 2.428 1.876 3.982v2.17H0v3.355h1.876V19h3.946V9.507h2.662l.344-3.355H5.822z"/>
        </symbol>

        <symbol id="social_google" viewBox="0 0 28 18"> <!-- social_google-plus.svg -->
            <path d="M.024 8.448C.1 3.867 4.312-.145 8.894.008c2.195-.103 4.258.853 5.94 2.194-.718.816-1.461 1.601-2.255 2.336-2.021-1.397-4.896-1.796-6.917-.183-2.891 2-3.023 6.721-.242 8.874 2.705 2.454 7.817 1.236 8.564-2.522-1.694-.026-3.392 0-5.086-.055-.005-1.01-.009-2.021-.005-3.032 2.832-.008 5.665-.013 8.5.009.17 2.378-.144 4.908-1.604 6.874-2.212 3.112-6.653 4.02-10.118 2.688C2.193 15.866-.27 12.193.024 8.448zm22.894-3.38h2.526c.004.845.008 1.695.017 2.54.845.008 1.694.008 2.539.017v2.526c-.845.008-1.69.013-2.539.021-.009.85-.013 1.694-.017 2.54h-2.53c-.009-.846-.009-1.69-.018-2.536l-2.539-.025V7.625c.845-.009 1.69-.013 2.54-.018.004-.849.012-1.694.02-2.539z"/>
        </symbol>

        <symbol id="social_instagram" viewBox="0 0 17 17"> <!-- social_instagram.svg -->
            <path d="M8.5 1.766c2.193 0 2.453.008 3.32.048.8.036 1.235.17 1.525.283.356.131.68.341.944.614.273.265.483.588.614.944.113.29.247.725.283 1.526.04.866.048 1.126.048 3.32 0 2.193-.008 2.452-.048 3.318-.036.801-.17 1.236-.283 1.526a2.72 2.72 0 0 1-1.558 1.559c-.29.112-.725.246-1.526.283-.866.04-1.126.047-3.32.047-2.193 0-2.452-.008-3.318-.047-.801-.037-1.236-.17-1.526-.283a2.545 2.545 0 0 1-.944-.615 2.545 2.545 0 0 1-.615-.944c-.112-.29-.246-.725-.282-1.526-.04-.866-.048-1.125-.048-3.319 0-2.193.008-2.453.048-3.32.036-.8.17-1.235.282-1.525.132-.356.342-.68.615-.944.265-.273.588-.483.944-.615.29-.112.725-.246 1.526-.282.866-.04 1.126-.048 3.319-.048zM8.5 0C6.192 0 5.902.01 4.996.051 4.09.092 3.473.236 2.932.446a4.167 4.167 0 0 0-1.505.98 4.167 4.167 0 0 0-.98 1.506c-.21.54-.355 1.159-.396 2.063C.01 5.902 0 6.192 0 8.5s.01 2.598.051 3.505c.042.904.185 1.522.395 2.063.214.567.548 1.08.98 1.505.425.433.94.767 1.506.98.541.21 1.159.355 2.064.396.906.041 1.196.051 3.504.051 2.309 0 2.598-.01 3.505-.051.904-.041 1.522-.185 2.063-.395a4.346 4.346 0 0 0 2.486-2.486c.21-.54.354-1.159.395-2.063.041-.907.051-1.197.051-3.505s-.01-2.598-.051-3.505c-.041-.904-.185-1.522-.395-2.063a4.167 4.167 0 0 0-.98-1.505 4.167 4.167 0 0 0-1.506-.98c-.54-.21-1.159-.355-2.064-.396C11.098.01 10.808 0 8.5 0z"/>
            <path d="M8.5 4a4.5 4.5 0 1 0 0 9 4.5 4.5 0 0 0 0-9zm0 7.21a2.71 2.71 0 1 1 0-5.42 2.71 2.71 0 0 1 0 5.42z"/>
        </symbol>

        <symbol id="social_linkedin" viewBox="0 0 21 19"> <!-- social_linkedin.svg -->
            <path d="M0 6.288h5.03v12.576H0V6.288zM2.5 5.03h-.03C.97 5.03 0 3.912 0 2.515 0 1.087 1 0 2.53 0 4.06 0 5 1.087 5.03 2.515c0 1.397-.97 2.515-2.53 2.515zm13.09 13.834V12.29c0-1.65-.655-2.777-2.296-2.777-1.251 0-1.997.76-2.325 1.493-.12.263-.149.63-.149.997v6.861H6.288s.06-11.134 0-12.286h4.532v1.739c.602-.837 1.68-2.029 4.085-2.029 2.982 0 5.217 1.757 5.217 5.532v7.044H15.59z"/>
        </symbol>

        <symbol id="social_pinterest" viewBox="0 0 18 21"> <!-- social_pinterest.svg -->
            <path d="M3.493 19.38c-.036-.856-.007-1.884.221-2.816L5.35 9.878s-.406-.784-.406-1.941c0-1.819 1.091-3.176 2.45-3.176 1.156 0 1.714.838 1.714 1.841 0 1.123-.741 2.8-1.122 4.355-.319 1.301.676 2.363 2.005 2.363 2.408 0 4.03-2.986 4.03-6.523 0-2.69-1.876-4.702-5.287-4.702-3.855 0-6.257 2.775-6.257 5.875 0 1.07.327 1.824.838 2.408.235.267.268.375.182.683-.06.225-.2.769-.258.984-.085.31-.346.422-.637.308C.827 11.653 0 9.776 0 7.665 0 4.179 3.044 0 9.082 0c4.852 0 8.045 3.39 8.045 7.028 0 4.814-2.772 8.41-6.857 8.41-1.371 0-2.663-.716-3.104-1.53 0 0-.738 2.827-.894 3.373-.27.946-.797 1.892-1.28 2.629-.336.38-1.397.67-1.5-.53z"/>
        </symbol>

        <symbol id="social_rss" viewBox="0 0 17 17"> <!-- social_rss.svg -->
            <path d="M2.256 16.982a2.257 2.257 0 1 1 .003-4.515 2.257 2.257 0 0 1-.003 4.515m5.662.015c0-2.13-.823-4.132-2.32-5.634A7.841 7.841 0 0 0 0 9.033V5.777c6.163 0 11.175 5.035 11.175 11.221H7.918m5.756.003c0-7.576-6.131-13.74-13.667-13.74V0c9.332 0 16.925 7.627 16.925 17h-3.258"/>
        </symbol>

        <symbol id="social_sharethis" viewBox="0 0 18 18"> <!-- social_sharethis.svg -->
            <path d="M6.045 8.564c0 .058-.014.113-.017.172l6.137 3.067a2.991 2.991 0 0 1 1.94-.722 3.023 3.023 0 1 1-3.023 3.022c0-.06.014-.114.017-.172l-6.136-3.068a3.002 3.002 0 0 1-1.94.721 3.023 3.023 0 0 1 0-6.045c.742 0 1.413.28 1.94.723l6.136-3.067c-.003-.059-.017-.114-.017-.174a3.022 3.022 0 1 1 3.022 3.024c-.743 0-1.414-.28-1.94-.725L6.029 8.39c.003.058.017.113.017.174z"/>
        </symbol>

        <symbol id="social_twitter" viewBox="0 0 21 18"> <!-- social_twitter.svg -->
            <path d="M18.182 4.826c0 5.712-4.178 12.301-11.816 12.301-2.345 0-4.529-.715-6.366-1.941a8.124 8.124 0 0 0 6.148-1.792c-1.818-.034-3.35-1.284-3.879-3.002a3.986 3.986 0 0 0 1.875-.077C2.244 9.921.813 8.171.813 6.076v-.052c.56.322 1.2.517 1.881.54-1.114-.776-1.847-2.1-1.847-3.6 0-.791.204-1.536.563-2.173 2.048 2.617 5.107 4.336 8.558 4.517a4.544 4.544 0 0 1-.107-.986C9.86 1.935 11.72 0 14.014 0c1.195 0 2.274.523 3.031 1.364A8.124 8.124 0 0 0 19.683.316a4.318 4.318 0 0 1-1.826 2.391 8.045 8.045 0 0 0 2.384-.68 8.636 8.636 0 0 1-2.071 2.238c.007.186.012.372.012.561z"/>
        </symbol>

        <symbol id="social_vimeo" viewBox="0 0 21 17"> <!-- social_vimeo.svg -->
            <path d="M17.293 0c1.959.051 2.938 1.163 2.948 3.338 0 .143-.005.291-.012.444-.087 1.844-1.459 4.355-4.122 7.534-2.747 3.33-5.077 4.998-6.99 5.006-1.191 0-2.18-1.019-2.973-3.059l-.833-2.796-.823-2.793C3.88 5.651 3.232 4.641 2.54 4.641c-.151 0-.677.295-1.579.884L0 4.388l1.491-1.24 1.467-1.226C4.272.87 5.271.301 5.957.217c.091-.01.182-.013.275-.013 1.407 0 2.286 1.01 2.63 3.033.193 1.154.352 2.092.481 2.812.126.722.23 1.225.314 1.512.465 1.912.966 2.874 1.505 2.881.414 0 1.05-.623 1.91-1.87.842-1.28 1.294-2.229 1.352-2.846.019-.126.025-.243.025-.352 0-.836-.46-1.252-1.376-1.252-.465 0-.962.099-1.493.29C12.532 1.479 14.361.01 17.066 0h.227z"/>
        </symbol>

        <symbol id="social_youtube" viewBox="0 0 24 17"> <!-- social_youtube.svg -->
            <path d="M23.84 3.585c0-1.891-1.552-3.425-3.465-3.425C17.645.046 14.85-.004 12 0c-2.85-.004-5.642.046-8.374.16C1.714.16.162 1.694.162 3.585A58.47 58.47 0 0 0 0 8.078a58.391 58.391 0 0 0 .162 4.493c0 1.893 1.552 3.426 3.465 3.426 2.731.116 5.524.164 8.374.162 2.85.002 5.644-.046 8.374-.162 1.913 0 3.465-1.533 3.465-3.426A56.02 56.02 0 0 0 24 8.078a56.267 56.267 0 0 0-.16-4.493zm-13.79 9.064a.38.38 0 0 1-.426.018.489.489 0 0 1-.22-.417V3.91c0-.175.085-.335.22-.417a.375.375 0 0 1 .199-.06c.08 0 .158.028.227.076l5.684 4.171a.49.49 0 0 1 .192.4c0 .16-.071.312-.192.4l-5.684 4.17z"/>
        </symbol>

    </defs>
</svg>
