<svg xmlns="http://www.w3.org/2000/svg" width="21" height="19" viewBox="0 0 21 19">
  <path fill="#000000" fill-rule="evenodd" d="M0,6.28810404 L5.03048323,6.28810404 L5.03048323,18.8643121 L0,18.8643121 L0,6.28810404 Z M2.50024941,5.03048323 L2.47039766,5.03048323 C0.96998267,5.03048323 0,3.91243632 0,2.51516883 C0,1.08718416 1.00049779,5.68434189e-14 2.52970313,5.68434189e-14 C4.05917382,5.68434189e-14 5.00049882,1.08718416 5.03048323,2.51516883 C5.03048323,3.91243632 4.05917382,5.03048323 2.50024941,5.03048323 L2.50024941,5.03048323 Z M15.5900362,18.8643121 L15.5900362,12.2902484 C15.5900362,10.6392379 14.9346505,9.51259952 13.2944382,9.51259952 C12.0428316,9.51259952 11.2972195,10.2722511 10.9692577,11.0064704 C10.8494488,11.269025 10.8204042,11.6353975 10.8204042,12.0025071 L10.8204042,18.8643121 L6.28810404,18.8643121 C6.28810404,18.8643121 6.34753787,7.72988169 6.28810404,6.57793391 L10.8204042,6.57793391 L10.8204042,8.31703596 C11.422407,7.48035034 12.4994771,6.28810404 14.9052025,6.28810404 C17.8865755,6.28810404 20.1219329,8.04477527 20.1219329,11.8195666 L20.1219329,18.8643121 L15.5900362,18.8643121 L15.5900362,18.8643121 Z"/>
</svg>
