<svg xmlns="http://www.w3.org/2000/svg" xmlns:xlink="http://www.w3.org/1999/xlink" width="24" height="24" viewBox="0 0 24 24">
    <path fill="#000" d="M20.067 8.509C20.067 13.844 16.146 20 8.975 20c-2.201 0-4.25-.668-5.975-1.814.304.036.615.056.93.056 1.825 0 3.507-.646 4.841-1.73-1.706-.03-3.145-1.199-3.64-2.804.236.047.48.073.732.073.355 0 .7-.05 1.026-.144-1.783-.37-3.126-2.004-3.126-3.96v-.05c.526.301 1.126.484 1.766.505-1.046-.725-1.734-1.962-1.734-3.363 0-.74.192-1.435.528-2.03 1.923 2.444 4.794 4.05 8.034 4.22-.066-.295-.1-.604-.1-.921 0-2.23 1.745-4.038 3.898-4.038 1.121 0 2.134.488 2.845 1.275.887-.181 1.723-.518 2.476-.98-.292.942-.91 1.735-1.714 2.234.788-.098 1.538-.314 2.238-.636-.522.81-1.184 1.522-1.944 2.091.007.174.01.348.01.525z"/>
</svg>