<svg xmlns="http://www.w3.org/2000/svg" width="28" height="18" viewBox="0 0 28 18">
  <path fill="#000000" fill-rule="evenodd" d="M0.0236293783,8.44812895 C0.100203169,3.86671603 4.31206432,-0.145387408 8.89347724,0.00745750973 C11.0886935,-0.0945399901 13.1522512,0.860665083 14.8335453,2.20237107 C14.1159308,3.01774574 13.3728927,3.80315675 12.5790071,4.53772035 C10.5578222,3.14092966 7.68342975,2.7417169 5.66224487,4.35521444 C2.77090328,6.35491023 2.63924479,11.0764562 5.42041697,13.2289969 C8.12501537,15.6832928 13.2369969,14.4647708 13.9842723,10.7069044 C12.2902664,10.6814807 10.5917205,10.7069044 8.89771453,10.6518197 C8.89347724,9.6412273 8.88923996,8.63063486 8.89347724,7.62034509 C11.7254968,7.61187052 14.5575164,7.60733057 17.3937733,7.62881966 C17.5635674,10.0065418 17.249403,12.5371088 15.7887504,14.5029064 C13.576585,17.6151921 9.13560781,18.523787 5.67071944,17.1905556 C2.19342189,15.8657988 -0.269348603,12.1929808 0.0236293783,8.44812895 Z M22.9176795,5.06828895 L25.4440092,5.06828895 C25.4482465,5.91332461 25.4524838,6.76259757 25.4609584,7.60733057 C26.305994,7.6161078 27.155267,7.6161078 28,7.62458237 L28,10.1509121 C27.155267,10.1593867 26.3102313,10.163624 25.4609584,10.1720986 C25.4524838,11.0210688 25.4482465,11.8661045 25.4440092,12.7111402 L22.9134422,12.7111402 C22.9049676,11.8661045 22.9049676,11.0210688 22.896493,10.1763358 C22.0514574,10.1678613 21.2024871,10.1593867 20.3574514,10.1509121 L20.3574514,7.62458237 C21.2024871,7.6161078 22.0472201,7.61187052 22.896493,7.60733057 C22.9007303,6.75836028 22.9092049,5.91332461 22.9176795,5.06828895 Z"/>
</svg>
