<svg xmlns="http://www.w3.org/2000/svg" width="18" height="21" viewBox="0 0 18 21">
  <path fill="#000000" fill-rule="evenodd" d="M3.49275205,19.3805166 C3.45741009,18.5240181 3.48614133,17.4957784 3.71395714,16.5637137 C3.95829977,15.5671234 5.34985775,9.87782435 5.34985775,9.87782435 C5.34985775,9.87782435 4.94355232,9.09443861 4.94355232,7.93665681 C4.94355232,6.11816164 6.03508501,4.76066923 7.39384361,4.76066923 C8.54995802,4.76066923 9.10831017,5.59901218 9.10831017,6.60247215 C9.10831017,7.72467896 8.36689174,9.40234625 7.98601218,10.9566051 C7.667426,12.258159 8.66234038,13.3195203 9.99135071,13.3195203 C12.3994351,13.3195203 14.0213514,10.3341656 14.0213514,6.79653983 C14.0213514,4.10756154 12.1454306,2.09499869 8.73353282,2.09499869 C4.87871634,2.09499869 2.47724272,4.87009298 2.47724272,7.97026904 C2.47724272,9.03923605 2.8044737,9.79367111 3.31527947,10.3775916 C3.55021453,10.6452627 3.5830139,10.7532144 3.49707445,11.061122 C3.43656088,11.2863485 3.29697284,11.8300324 3.23900185,12.0449544 C3.15382518,12.3558062 2.89320999,12.4671927 2.60208375,12.352862 C0.82710362,11.6521575 0,9.7755156 0,7.6645695 C0,4.17944755 3.04398541,0 9.08212152,0 C13.9338864,0 17.1271217,3.39017354 17.1271217,7.02839061 C17.1271217,11.8418089 14.3551931,15.437336 10.2700183,15.437336 C8.89880099,15.437336 7.60742094,14.7216654 7.16551928,13.908593 C7.16551928,13.908593 6.42816899,16.7352097 6.27205414,17.2813471 C6.00279415,18.2273963 5.4752073,19.1727096 4.99287851,19.9099705 C4.65560687,20.2901017 3.59544589,20.5801705 3.49275205,19.3805166 Z"/>
</svg>
