<svg xmlns="http://www.w3.org/2000/svg" width="21" height="18" viewBox="0 0 21 18">
  <path fill="#000000" fill-rule="evenodd" d="M18.1815697,4.82618217 C18.1815697,10.5379834 14.0042736,17.1271217 6.3656261,17.1271217 C4.02050473,17.1271217 1.83736651,16.4115592 0,15.1858271 C0.32396629,15.2239242 0.654681879,15.2449052 0.991108411,15.2449052 C2.93542533,15.2449052 4.72710429,14.5541885 6.14809104,13.3941601 C4.33045325,13.3604801 2.79732432,12.109902 2.26932156,10.3916685 C2.52164146,10.4419125 2.78174901,10.4695191 3.04964422,10.4695191 C3.42864324,10.4695191 3.7957012,10.4165145 4.14354962,10.3154744 C2.24336273,9.92070029 0.813030787,8.17099531 0.813030787,6.07620808 L0.813030787,6.02375558 C1.3732225,6.34564829 2.01284825,6.54110287 2.69400814,6.56374027 C1.57985484,5.78799539 0.847296452,4.46398385 0.847296452,2.96384234 C0.847296452,2.17263778 1.05133291,1.42781228 1.40956487,0.791204559 C3.45771714,3.40775613 6.51670654,5.12654175 9.96819355,5.30764091 C9.89810469,4.99237378 9.86072397,4.66164696 9.86072397,4.32208604 C9.86072397,1.9352212 11.7204151,0 14.0141379,0 C15.2087636,0 16.2876129,0.52286861 17.0450918,1.36431714 C17.9905127,1.17107109 18.8803816,0.810529165 19.6825097,0.315819266 C19.372042,1.32401154 18.7132067,2.17263778 17.8570842,2.70710115 C18.696593,2.60219615 19.495606,2.37085302 20.2411439,2.02632291 C19.6851056,2.89372163 18.9800635,3.65511108 18.1696286,4.26466435 C18.1774163,4.4507327 18.1815697,4.63735317 18.1815697,4.82618217 Z"/>
</svg>
