<svg xmlns="http://www.w3.org/2000/svg" width="24" height="17" viewBox="0 0 24 17">
  <path fill="#000000" fill-rule="evenodd" d="M23.8401968,3.5846465 C23.8401968,1.69372192 22.2880519,0.159625221 20.3749431,0.159625221 C17.6447774,0.0456959806 14.850315,-0.00356055549 12.000956,0.000199485428 C9.15122097,-0.00356055549 6.35863858,0.0456959806 3.62734485,0.159625221 C1.71423603,0.159625221 0.161715137,1.69409792 0.161715137,3.5846465 C0.0477858972,5.08339881 -0.00147063888,6.58102311 3.33774873e-05,8.0778954 C-0.00147063888,9.57664771 0.0477858972,11.073896 0.161715137,12.5707683 C0.161715137,14.4635729 1.71386003,15.9972936 3.62734485,15.9972936 C6.35826258,16.1134789 9.15122097,16.1612314 12.000956,16.1589753 C14.850691,16.1612314 17.6447774,16.1134789 20.3749431,15.9972936 C22.2880519,15.9972936 23.8401968,14.4635729 23.8401968,12.5707683 C23.9552541,11.073896 24.0048866,9.57664771 23.9996226,8.0778954 C24.0048866,6.58102311 23.9548781,5.08339881 23.8401968,3.5846465 L23.8401968,3.5846465 Z M10.0502468,12.6493532 C9.980686,12.7001137 9.90247715,12.725306 9.82276428,12.725306 C9.75395553,12.725306 9.68552279,12.7053778 9.62385812,12.6674013 C9.48887265,12.5839284 9.40464773,12.4237507 9.40464773,12.2500368 L9.40464773,3.90913803 C9.40464773,3.73467213 9.48887265,3.57524639 9.62385812,3.49252549 C9.68552279,3.45379707 9.75433154,3.43349285 9.82276428,3.43349285 C9.90247715,3.43349285 9.980686,3.46056515 10.0502468,3.50944568 L15.7343006,7.68008307 C15.8549979,7.76656401 15.9264387,7.91809366 15.9264387,8.07977542 C15.9264387,8.24070517 15.8549979,8.39223482 15.7343006,8.48021978 L10.0502468,12.6493532 L10.0502468,12.6493532 Z"/>
</svg>
