<svg xmlns="http://www.w3.org/2000/svg" xmlns:xlink="http://www.w3.org/1999/xlink" width="24" height="24" viewBox="0 0 24 24">
    <path fill="#000" d="M7.623 5.006c1.882-.087 3.65.732 5.091 1.882-.615.699-1.252 1.372-1.932 2.001C9.05 7.692 6.586 7.35 4.853 8.733c-2.478 1.714-2.59 5.761-.207 7.606 2.318 2.104 6.7 1.06 7.34-2.162-1.451-.021-2.907 0-4.36-.047-.003-.866-.007-1.732-.003-2.598 2.427-.008 4.855-.011 7.286.007.145 2.038-.124 4.207-1.376 5.892-1.896 2.668-5.702 3.447-8.672 2.304C1.88 18.599-.231 15.45.02 12.24c.065-3.927 3.675-7.366 7.602-7.235zm14.186 4.338c.004.725.007 1.453.015 2.177.724.007 1.452.007 2.176.014v2.166c-.724.007-1.448.01-2.176.018-.008.728-.011 1.452-.015 2.176H19.64c-.007-.724-.007-1.448-.014-2.172l-2.177-.022v-2.166c.725-.007 1.449-.01 2.177-.014.003-.728.01-1.452.018-2.177h2.165z"/>
</svg>