<svg xmlns="http://www.w3.org/2000/svg" width="21" height="17" viewBox="0 0 21 17">
  <path fill="#000000" fill-rule="evenodd" d="M17.2933762,0 C19.2517581,0.0514597124 20.2314345,1.16318369 20.2411439,3.33808474 C20.2411439,3.48081262 20.2362892,3.62936613 20.2285217,3.78180339 C20.1421082,5.6256146 18.7701728,8.13743112 16.10689,11.316282 C13.3601065,14.6465993 11.0298553,16.3136998 9.1161366,16.3224382 C7.92576665,16.3224382 6.93735179,15.3029533 6.14409547,13.2630127 L5.31103069,10.4667113 L4.4876753,7.67429371 C3.88083907,5.65085898 3.2322525,4.6410835 2.53997373,4.6410835 C2.38850741,4.6410835 1.86322996,4.93624864 0.96122859,5.52463705 L0,4.38766869 L1.49136072,3.14875184 L2.95844799,1.92245718 C4.27212707,0.869960421 5.27122224,0.300990771 5.95670444,0.216519167 C6.04797261,0.206809788 6.13924078,0.203896974 6.23245083,0.203896974 C7.63933995,0.203896974 8.51803881,1.2146434 8.86272179,3.23710719 C9.05496751,4.3905815 9.21420133,5.32850758 9.34333608,6.04894355 C9.46858708,6.7713214 9.57344838,7.27426727 9.65694905,7.56069397 C10.1220283,9.47344177 10.6230323,10.4346704 11.1619029,10.4424379 C11.5755225,10.4424379 12.2124578,9.81909569 13.0727088,8.57241134 C13.9135411,7.29174415 14.3659982,6.34313776 14.4242545,5.72562121 C14.4427023,5.60037021 14.4494989,5.48288672 14.4494989,5.37414166 C14.4494989,4.53816407 13.9892743,4.12163168 13.0727088,4.12163168 C12.6076295,4.12163168 12.1114802,4.22066735 11.5803772,4.41194213 C12.5318964,1.47873853 14.3611435,0.0097093797 17.0661767,0 L17.2933762,0 L17.2933762,0 Z"/>
</svg>
