<svg xmlns="http://www.w3.org/2000/svg" xmlns:xlink="http://www.w3.org/1999/xlink" width="24" height="24" viewBox="0 0 24 24">
    <path fill="#000" d="M9.028 11.736l6.137 3.067c.525-.445 1.197-.722 1.94-.722 1.67 0 3.022 1.353 3.022 3.022 0 1.671-1.353 3.024-3.022 3.024-1.671 0-3.023-1.353-3.023-3.024 0-.06.014-.114.017-.172l-6.136-3.068c-.527.444-1.198.721-1.94.721-1.67 0-3.023-1.351-3.023-3.02 0-1.671 1.353-3.025 3.022-3.025.743 0 1.414.28 1.94.723L14.1 6.195c-.003-.059-.017-.114-.017-.174C14.082 4.353 15.434 3 17.105 3c1.67 0 3.022 1.353 3.022 3.02 0 1.671-1.353 3.025-3.022 3.025-.744 0-1.415-.28-1.94-.725l-6.137 3.07c.003.058.017.113.017.174 0 .058-.014.113-.017.172z"/>
</svg>