<svg xmlns="http://www.w3.org/2000/svg" xmlns:xlink="http://www.w3.org/1999/xlink" width="24" height="24" viewBox="0 0 24 24">
    <path fill="#000" d="M3.561 8.776h4.25V19.4h-4.25V8.776zm2.087-1.063c-1.268 0-2.087-.944-2.087-2.125 0-1.206.845-2.125 2.137-2.125s2.088.919 2.113 2.125c0 1.18-.82 2.125-2.138 2.125h-.025zm11.084 6.134c0-1.395-.554-2.347-1.94-2.347-1.057 0-1.687.642-1.964 1.262-.1.222-.125.532-.125.842V19.4h-3.83s.05-9.407 0-10.38h3.83v1.469c.508-.707 1.418-1.714 3.45-1.714 2.52 0 4.408 1.484 4.408 4.673v5.952h-3.829v-5.554z"/>
</svg>