<svg xmlns="http://www.w3.org/2000/svg" xmlns:xlink="http://www.w3.org/1999/xlink" width="24" height="24" viewBox="0 0 24 24">
    <path fill="#000" d="M3 17.724c0-1.247 1.01-2.257 2.256-2.257 1.246 0 2.257 1.01 2.257 2.257 0 1.246-1.01 2.258-2.257 2.258C4.01 19.982 3 18.97 3 17.724zm5.598-3.36C7.104 12.86 5.117 12.033 3 12.033V8.776c6.163 0 11.175 5.035 11.175 11.221h-3.258c0-2.13-.823-4.132-2.32-5.634zM3.007 6.258V3c9.332 0 16.925 7.627 16.925 17h-3.258c0-7.576-6.131-13.74-13.667-13.74z"/>
</svg>