<svg xmlns="http://www.w3.org/2000/svg" width="18" height="18" viewBox="0 0 18 18">
  <path fill="#000000" fill-rule="evenodd" d="M6.04476109,8.56360068 C6.04476109,8.62233485 6.03138164,8.67732596 6.02791732,8.73586102 L12.1645824,11.8031782 C12.6899645,11.3582718 13.3621621,11.0806086 14.1048009,11.0806086 C15.7742449,11.0809669 17.1271217,12.4338836 17.1271217,14.1031285 C17.1271217,15.7742449 15.7742051,17.1271217 14.1048009,17.1271217 C12.4339234,17.1271217 11.0824801,15.7742051 11.0824801,14.1031285 C11.0824801,14.042921 11.0958595,13.9892041 11.0992044,13.9308681 L4.96253928,10.8633519 C4.4355644,11.3065858 3.76495959,11.5842491 3.02232081,11.5842491 C1.35299627,11.5842491 0,10.2328456 0,8.56360068 C0,6.89268334 1.35303609,5.53948798 3.02232081,5.53948798 C3.76491977,5.53948798 4.4357635,5.81890333 4.96253928,6.26213723 L11.0992044,3.19462097 C11.0958595,3.13596645 11.0824801,3.08081606 11.0824801,3.0206882 C11.0824801,1.35303609 12.4339234,0 14.1048009,0 C15.7742449,0 17.1271217,1.35303609 17.1271217,3.0206882 C17.1271217,4.69148608 15.7742051,6.04480091 14.1048009,6.04480091 C13.3605295,6.04480091 12.689646,5.76538555 12.1645824,5.32047922 L6.02791732,8.38966791 C6.03118254,8.44828262 6.04476109,8.50347282 6.04476109,8.56360068 L6.04476109,8.56360068 Z"/>
</svg>
