<svg xmlns="http://www.w3.org/2000/svg" width="18" height="18" viewBox="0 0 18 18">
  <path fill="#010002" fill-rule="evenodd" d="M11.3676857,4.27729949 L12.6810035,4.27729949 L11.7805884,9.36095062 C11.6803318,9.94864668 11.677126,10.3743001 11.7710437,10.6370365 C11.8649614,10.8989715 12.0745822,11.0305583 12.3995418,11.0305583 C12.7245015,11.0305583 13.0434865,10.9556573 13.3562055,10.8054909 C13.6688517,10.6553246 13.9498762,10.4242827 14.2002991,10.1115637 C14.4507221,9.79884466 14.6536397,9.40539577 14.8102178,8.93019694 C14.9663587,8.45507097 15.0448299,7.89229334 15.0448299,7.24157258 C15.0448299,6.30356128 14.8878875,5.50303851 14.5756057,4.84044143 C14.2629595,4.17784435 13.8345374,3.63014892 13.2908493,3.19895808 C12.7467241,2.76696577 12.1055481,2.4515509 11.3676128,2.25140199 C10.6296776,2.05125309 9.83593086,1.95063217 8.9850612,1.95063217 C8.00974512,1.95063217 7.103064,2.12578979 6.2653093,2.47610503 C5.42755461,2.82685743 4.69916413,3.3083223 4.07977357,3.92057249 C3.46074731,4.53362415 2.97607657,5.26201463 2.6261985,6.10654539 C2.27588326,6.95027468 2.10108995,7.86606341 2.10108995,8.8544216 C2.10108995,9.83010199 2.24768609,10.7050886 2.5413884,11.480693 C2.83545502,12.2566616 3.26380428,12.9156885 3.82658192,13.460178 C4.3892867,14.0038661 5.08641985,14.4228163 5.91783564,14.7164458 C6.74925144,15.0100752 7.70314642,15.1571085 8.77908342,15.1571085 C9.14127499,15.1571085 9.55381344,15.1135377 10.0166988,15.0263232 C10.4795841,14.9383801 10.8984615,14.8071576 11.273768,14.632 L11.8551252,16.4331945 C11.3423301,16.6832531 10.8204274,16.8580464 10.28898,16.9578658 C9.75716822,17.0581224 9.14761388,17.1084693 8.46009838,17.1084693 C7.24703715,17.1084693 6.12432345,16.9328745 5.09275875,16.5833608 C4.06082973,16.2326084 3.16719072,15.7139116 2.41060307,15.0263232 C1.65365112,14.3383705 1.06282204,13.4847322 0.637168623,12.465481 C0.212389541,11.4466669 0,10.2677046 0,8.92975978 C0,7.56653222 0.24371973,6.3344543 0.731960661,5.23389032 C1.21940012,4.13420067 1.87609547,3.1957522 2.70153667,2.41978355 C3.52705074,1.64461637 4.48364157,1.04781269 5.57152776,0.62813387 C6.65934108,0.209620826 7.80981479,0 9.02287601,0 C10.1733497,0 11.2429478,0.166050005 12.2308688,0.49698424 C13.2184256,0.828719945 14.075197,1.30340875 14.8004544,1.92287217 C15.5257119,2.54189843 16.0951199,3.29877752 16.5080955,4.193218 C16.9206339,5.08685701 17.1271217,6.10333951 17.1271217,7.24113542 C17.1271217,8.04165819 16.9868645,8.79146978 16.7050385,9.49246455 C16.4236497,10.193095 16.0361025,10.7994435 15.5423242,11.3122385 C15.0477443,11.8246693 14.4727261,12.2308688 13.8164679,12.5312744 C13.1602097,12.8312427 12.4563733,12.9814819 11.7061975,12.9814819 C11.3931141,12.9814819 11.1030549,12.947383 10.8335424,12.8784566 C10.5648314,12.8095302 10.339764,12.6937542 10.1586318,12.5312744 C9.9771353,12.3684302 9.84277979,12.1559678 9.75520098,11.8932314 C9.66762217,11.6308593 9.64226658,11.3058996 9.68029997,10.9179153 L9.60539896,10.9179153 C9.41756354,11.1806517 9.21464592,11.4370493 8.99591748,11.6867436 C8.77675187,11.9372394 8.53623802,12.1591009 8.2735016,12.3529109 C8.01112947,12.5470852 7.72303745,12.7000931 7.41075561,12.8125903 C7.09767229,12.9247233 6.75406026,12.981409 6.3788266,12.981409 C6.07885825,12.981409 5.79113053,12.9156156 5.51608061,12.7848303 C5.24066638,12.6532435 5.00284839,12.468614 4.80313664,12.2312331 C4.60262343,11.9938523 4.44327663,11.7061246 4.3248048,11.3681229 C4.20553149,11.0304854 4.1464413,10.6551789 4.1464413,10.2426404 C4.1464413,9.46747326 4.27125203,8.71372719 4.52131066,7.98220369 C4.77136929,7.25024303 5.11257691,6.60345677 5.54376775,6.04075199 C5.97495859,5.47804722 6.47544016,5.02507096 7.04455669,4.68065746 C7.61367323,4.33704543 8.21718012,4.16509369 8.8544216,4.16509369 C9.29195134,4.16509369 9.66128327,4.23044992 9.96125162,4.36167241 C10.2616571,4.49325921 10.5362699,4.66521095 10.7867657,4.87803766 L11.3676857,4.27729949 L11.3676857,4.27729949 Z M10.1855904,6.54764532 C10.0231105,6.40971962 9.85429181,6.30356128 9.6794985,6.22866027 C9.50434088,6.15339495 9.28561244,6.11609017 9.02280315,6.11609017 C8.64793379,6.11609017 8.30075157,6.22232137 7.98213083,6.43507522 C7.66314579,6.64746476 7.3876587,6.92215037 7.15661677,7.26015212 C6.92477336,7.59778955 6.74684703,7.97666626 6.62159914,8.39474214 C6.4967884,8.81442096 6.43376372,9.22382639 6.43376372,9.62368704 C6.43376372,10.0365898 6.51820951,10.3746644 6.68739253,10.6374008 C6.85621125,10.8993358 7.14670768,11.0309226 7.55924613,11.0309226 C7.73440375,11.0309226 7.92223917,10.977807 8.12195091,10.8720129 C8.32246412,10.7654174 8.51583697,10.624723 8.70410955,10.4495654 C8.89158066,10.2747721 9.07264001,10.0742589 9.24779763,9.84955585 C9.42295525,9.62405135 9.57909617,9.38667052 9.71702186,9.13661189 L10.1855904,6.54764532 L10.1855904,6.54764532 Z"/>
</svg>
