<svg xmlns="http://www.w3.org/2000/svg" xmlns:xlink="http://www.w3.org/1999/xlink" width="24" height="24" viewBox="0 0 24 24">
    <path fill="#000" d="M6.936 20.148c-.031-.758-.006-1.668.196-2.493l1.447-5.916s-.36-.693-.36-1.717c0-1.61.966-2.81 2.169-2.81 1.023 0 1.517.741 1.517 1.63 0 .992-.656 2.477-.993 3.852-.282 1.151.598 2.09 1.774 2.09 2.13 0 3.566-2.64 3.566-5.771 0-2.38-1.66-4.16-4.679-4.16-3.41 0-5.536 2.455-5.536 5.198 0 .946.29 1.614.742 2.13.208.237.237.333.16.605-.053.2-.176.68-.228.87-.075.276-.306.374-.563.273-1.57-.62-2.303-2.28-2.303-4.148 0-3.084 2.694-6.782 8.037-6.782 4.293 0 7.118 3 7.118 6.219 0 4.26-2.453 7.44-6.067 7.44-1.214 0-2.356-.633-2.747-1.352 0 0-.653 2.5-.79 2.984-.24.837-.706 1.674-1.133 2.326-.298.336-1.236.593-1.327-.468z"/>
</svg>