<svg xmlns="http://www.w3.org/2000/svg" xmlns:xlink="http://www.w3.org/1999/xlink" width="24" height="24" viewBox="0 0 24 24">
    <path fill="#000" d="M19.677 4.812c-2.503-.104-5.064-.149-7.676-.145-2.612-.004-5.172.041-7.676.145-1.754 0-3.177 1.392-3.177 3.108C1.044 9.28.998 10.64 1 12c-.001 1.36.044 2.719.148 4.077 0 1.718 1.423 3.11 3.177 3.11 2.503.106 5.064.15 7.676.147 2.612.002 5.173-.041 7.676-.146 1.754 0 3.177-1.393 3.177-3.11.105-1.36.15-2.718.146-4.078.004-1.36-.041-2.718-.146-4.079 0-1.716-1.423-3.108-3.177-3.108zM9.657 16.217c-.067 0-.134-.018-.194-.053-.131-.076-.213-.221-.213-.379v-7.57c0-.159.082-.303.213-.378.06-.036.127-.054.194-.054.078 0 .154.025.222.069l5.533 3.785c.118.079.187.216.187.363 0 .146-.07.284-.187.364L9.88 16.148c-.068.046-.144.069-.222.069z"/>
</svg>