<svg xmlns="http://www.w3.org/2000/svg" xmlns:xlink="http://www.w3.org/1999/xlink" width="24" height="24" viewBox="0 0 24 24">
    <path fill="#000" d="M15.681 7.277l-.9 5.084c-.1.588-.104 1.013-.01 1.276.094.262.304.394.629.394s.643-.075.956-.226c.313-.15.594-.38.844-.693.25-.313.454-.707.61-1.182.156-.475.235-1.038.235-1.688 0-.938-.157-1.739-.47-2.402-.312-.662-.74-1.21-1.284-1.641-.544-.432-1.185-.747-1.923-.948-.738-.2-1.532-.3-2.383-.3-.975 0-1.882.175-2.72.525-.837.35-1.566.832-2.185 1.445-.62.613-1.104 1.341-1.454 2.186-.35.843-.525 1.76-.525 2.747 0 .976.147 1.851.44 2.627.294.776.723 1.435 1.286 1.98.562.543 1.26.962 2.09 1.255.832.294 1.786.441 2.862.441.362 0 .775-.043 1.238-.13.463-.089.881-.22 1.257-.395l.581 1.801c-.513.25-1.035.425-1.566.525-.532.1-1.141.15-1.829.15-1.213 0-2.336-.175-3.367-.525-1.032-.35-1.926-.87-2.682-1.557-.757-.688-1.348-1.541-1.774-2.56C3.212 14.445 3 13.267 3 11.93c0-1.363.244-2.596.732-3.696.487-1.1 1.144-2.038 1.97-2.814.825-.775 1.782-1.372 2.87-1.792C9.659 3.21 10.81 3 12.022 3c1.151 0 2.22.166 3.209.497.987.332 1.844.806 2.57 1.426.725.619 1.294 1.376 1.707 2.27.413.894.62 1.91.62 3.048 0 .8-.141 1.55-.423 2.251-.281.701-.669 1.307-1.163 1.82-.494.513-1.07.919-1.726 1.22-.656.3-1.36.45-2.11.45-.313 0-.603-.035-.872-.104-.27-.068-.494-.184-.675-.347-.182-.163-.316-.375-.404-.638-.087-.262-.113-.587-.075-.975h-.075c-.187.263-.39.519-.61.769-.218.25-.459.472-.721.666-.263.194-.551.347-.863.46-.313.112-.657.168-1.032.168-.3 0-.588-.065-.863-.196-.275-.132-.513-.316-.713-.554-.2-.237-.36-.525-.478-.863-.12-.338-.179-.713-.179-1.125 0-.776.125-1.53.375-2.26.25-.733.592-1.38 1.023-1.942.431-.563.931-1.016 1.5-1.36.57-.344 1.173-.516 1.81-.516.438 0 .807.065 1.107.197.3.131.575.303.826.516l.58-.6h1.314zM12.679 9.23c-.175-.076-.393-.113-.656-.113-.375 0-.722.106-1.04.32-.32.211-.595.486-.826.824-.232.338-.41.717-.535 1.135-.125.42-.188.829-.188 1.229 0 .413.084.75.253 1.013.17.262.46.394.872.394.175 0 .363-.053.563-.159.2-.107.394-.247.582-.422.188-.175.369-.376.544-.6.175-.226.331-.463.469-.713l.469-2.59c-.163-.137-.332-.243-.507-.318z"/>
</svg>