<svg xmlns="http://www.w3.org/2000/svg" width="17" height="17" viewBox="0 0 17 17">
  <path fill="#000000" fill-rule="evenodd" d="M2.25593231,16.9818042 C1.01003696,16.9818042 0,15.9700507 0,14.7244987 C0,13.47723 1.01003696,12.4671931 2.25593231,12.4671931 C3.50217097,12.4671931 4.51323788,13.47723 4.51323788,14.7244987 C4.51323788,15.9700507 3.50251429,16.9818042 2.25593231,16.9818042 L2.25593231,16.9818042 M7.9182503,16.9969102 C7.9182503,14.8662883 7.09463417,12.8647535 5.5977745,11.3630874 C4.10400469,9.86142133 2.11688915,9.0336854 0.00137326575,9.0336854 L0.00137326575,5.77561242 C6.16355999,5.77561242 11.17598,10.8106913 11.17598,16.9972535 L7.9182503,16.9972535 L7.9182503,16.9969102 M13.673607,16.9996567 C13.673607,9.42437951 7.54300543,3.25944625 0.00686632874,3.25944625 L0.00686632874,0 C9.33923703,0 16.93168,7.62711796 16.93168,17 L13.673607,17 L13.673607,16.9996567"/>
</svg>
