<svg xmlns="http://www.w3.org/2000/svg" xmlns:xlink="http://www.w3.org/1999/xlink" width="24" height="24" viewBox="0 0 24 24">
    <path fill="#000" d="M20.841 7.272c0 .14-.004.286-.012.435-.085 1.807-1.43 4.27-4.04 7.386-2.693 3.264-4.977 4.898-6.853 4.907-1.167 0-2.136-1-2.913-2.999l-.817-2.741-.807-2.737c-.595-1.984-1.23-2.974-1.91-2.974-.148 0-.663.29-1.547.867L1 8.3l1.462-1.214L3.9 5.884c1.288-1.031 2.267-1.589 2.939-1.672.09-.01.179-.012.27-.012 1.38 0 2.24.99 2.579 2.973.188 1.13.344 2.05.47 2.756.124.709.226 1.202.308 1.482.456 1.875.947 2.818 1.475 2.825.406 0 1.03-.61 1.873-1.833.825-1.255 1.268-2.185 1.325-2.79.018-.123.025-.238.025-.345 0-.82-.451-1.228-1.35-1.228-.455 0-.942.097-1.462.285C13.284 5.45 15.077 4.01 17.729 4h.223c1.92.05 2.88 1.14 2.89 3.272z"/>
</svg>