<svg xmlns="http://www.w3.org/2000/svg" width="17" height="17" viewBox="0 0 17 17">
  <g fill="#000000" fill-rule="evenodd">
    <path d="M8.49994939,1.765797 C10.6932522,1.765797 10.9530274,1.77417692 11.8192819,1.8136962 C12.6201606,1.85024828 13.0550649,1.98403344 13.3445446,2.09652645 C13.7013269,2.22820913 14.0240616,2.43817887 14.2890218,2.71099912 C14.5618399,2.97596151 14.771808,3.29869876 14.9034896,3.65548389 C15.0159817,3.94493329 15.1497985,4.37987364 15.1863176,5.18075864 C15.2258366,6.0469548 15.2342164,6.30673213 15.2342164,8.50011753 C15.2342164,10.6935029 15.2258366,10.953215 15.1863176,11.8194764 C15.1497658,12.6203614 15.0159491,13.0552692 14.9034896,13.3447512 C14.6271464,14.0611333 14.0609211,14.6273632 13.3445446,14.9037086 C13.0550975,15.0162016 12.6201606,15.1500194 11.8192819,15.1865389 C10.9532557,15.2260581 10.6934804,15.234438 8.49994939,15.234438 C6.30641837,15.234438 6.04674092,15.2260581 5.18061686,15.1865389 C4.37973822,15.1499868 3.94483392,15.016169 3.65535421,14.9037086 C3.29857142,14.7720269 2.97583652,14.562057 2.71087694,14.2892359 C2.43805972,14.0242728 2.22809178,13.7015358 2.09640915,13.3447512 C1.98391703,13.0553018 1.85010033,12.6203614 1.81358115,11.8194764 C1.77406218,10.9533129 1.76568233,10.6935029 1.76568233,8.50011753 C1.76568233,6.30673213 1.77406218,6.04702001 1.81358115,5.18075864 C1.85013293,4.37987364 1.98391703,3.94496589 2.09640915,3.65548389 C2.22810548,3.29868098 2.43809643,2.97593168 2.71094216,2.71096651 C2.97590315,2.43814712 3.29863763,2.22817752 3.65541943,2.09649384 C3.94486653,1.98400083 4.37980343,1.85018306 5.18068207,1.81366359 C6.04687135,1.77414431 6.30664662,1.7657644 8.5000146,1.7657644 L8.49994939,1.765797 Z M8.50001687,2.99678532e-17 C6.19155693,2.99678532e-17 5.90199565,0.00978483291 4.99552243,0.0511510576 C4.09076998,0.0924498006 3.4729133,0.23611814 2.93225496,0.446255862 C2.36509676,0.65968774 1.85132027,0.994266899 1.42675228,1.42666238 C0.994262783,1.85120712 0.659592858,2.3649897 0.446083617,2.93217702 C0.236116266,3.47287339 0.0924490667,4.09073497 0.0513193542,4.99549461 C0.00978475523,5.90197503 0,6.1915386 0,8.50001687 C0,10.8084951 0.00978475523,11.0980587 0.0513193542,12.0045391 C0.0926177694,12.9092988 0.236284969,13.5271604 0.446421022,14.067823 C0.659852178,14.6349852 0.994428552,15.1487656 1.42681976,15.5733376 C1.85138637,16.0057348 2.36516326,16.3403142 2.93232244,16.5537441 C3.47301452,16.7638819 4.0908712,16.9075502 4.99558991,16.9488489 C5.9021981,16.9902152 6.19165815,17 8.50008435,17 C10.8085106,17 11.0981056,16.9902152 12.0045788,16.9488489 C12.9093312,16.9075502 13.5271879,16.7638819 14.0678463,16.5537441 C15.2095836,16.1121603 16.1121674,15.2095693 16.5537477,14.067823 C16.7638837,13.5271266 16.9075509,12.909265 16.9488493,12.0045391 C16.9902152,11.0979237 17,10.8084614 17,8.50001687 C17,6.19157234 16.9902152,5.90197503 16.9488493,4.99549461 C16.9075509,4.09073497 16.7638837,3.47287339 16.5537477,2.93221076 C16.3403194,2.36504707 16.0057427,1.8512661 15.5733489,1.42669612 C15.1487723,0.994214434 14.6349584,0.659564326 14.067745,0.446087158 C13.527053,0.23611814 12.9091963,0.0924498006 12.0044438,0.0513197616 C11.0979706,0.00978483291 10.8084093,0 8.49994939,0 L8.49994939,0 L8.50001687,2.99678532e-17 Z"/>
    <path d="M8.5,4 C6.01471863,4 4,6.01471863 4,8.5 C4,10.9852814 6.01471863,13 8.5,13 C10.9852814,13 13,10.9852814 13,8.5 C13,6.01471863 10.9852814,4 8.5,4 L8.5,4 Z M8.50000251,11.2104955 C7.00304138,11.2104777 5.7895274,9.99693961 5.78953929,8.49997848 C5.78955117,7.00301736 7.00308442,5.78949856 8.50004554,5.7895045 C9.99700667,5.78951045 11.2105303,7.00303887 11.2105303,8.5 C11.2105125,9.99697055 9.99697306,11.2104955 8.50000251,11.2104955 L8.50000251,11.2104955 Z"/>
    <circle cx="13" cy="4" r="1"/>
  </g>
</svg>
